<svg xmlns="http://www.w3.org/2000/svg" xmlns:html="http://www.w3.org/1999/xhtml"
  xmlns:xlink="http://www.w3.org/1999/xlink" version="1.1" class="blocklySvg" width="270px" height="146px">
  <style>
    text {
      font-family: Arial, Helvetica, sans-serif;
      fill: white;
    }
  </style>

  <g class="blocklyBlockCanvas">
    <g data-id="9,K=J;gLx%smoS)!e[n5" class="blocklyDraggable" data-shapes="c-block c-1" data-category="control">
      <path class="blocklyPath blocklyBlockBackground" stroke="#CF8B17" fill="#FFAB19" fill-opacity="1"
        d="m 0,4 A 4,4 0 0,1 4,0 H 12 c 2,0 3,1 4,2 l 4,4 c 1,1 2,2 4,2 h 12 c 2,0 3,-1 4,-2 l 4,-4 c 1,-1 2,-2 4,-2 H 263.21250343322754 a 4,4 0 0,1 4,4 v 40  a 4,4 0 0,1 -4,4 H 64 c -2,0 -3,1 -4,2 l -4,4 c -1,1 -2,2 -4,2 h -12 c -2,0 -3,-1 -4,-2 l -4,-4 c -1,-1 -2,-2 -4,-2 h -8  a 4,4 0 0,0 -4,4 v 40 a 4,4 0 0,0 4,4 h  8 c 2,0 3,1 4,2 l 4,4 c 1,1 2,2 4,2 h 12 c 2,0 3,-1 4,-2 l 4,-4 c 1,-1 2,-2 4,-2 H 263.21250343322754 H 263.21250343322754 a 4,4 0 0,1 4,4 v 24  a 4,4 0 0,1 -4,4 H 48   c -2,0 -3,1 -4,2 l -4,4 c -1,1 -2,2 -4,2 h -12 c -2,0 -3,-1 -4,-2 l -4,-4 c -1,-1 -2,-2 -4,-2 H 4 a 4,4 0 0,1 -4,-4 z">
      </path><text class="blocklyText" y="2" text-anchor="middle" dominant-baseline="middle" dy="0"
        x="48.931251525878906" transform="translate(8, 24) ">repita&nbsp;até&nbsp;que</text>
      <path class="blocklyPath" style="visibility: hidden" d="M 16,0  h 16 l 16,16 l -16,16 h -16 l -16,-16 l 16,-16 z"
        fill="#CF8B17" transform="translate(113.86250305175781,8)" data-argument-type="boolean"></path>
      <g transform="translate(235.21250343322754, 100) ">
        <image height="24px" width="24px" xlink:href="https://scratch.mit.edu/static/blocks-media/default/repeat.svg"></image>
      </g>
      <g data-id="^!1,os8R{0)twea)4fd3" class="blocklyDraggable" data-shapes="stack" data-category="looks"
        transform="translate(16,48)">
        <path class="blocklyPath blocklyBlockBackground" stroke="#774DCB" fill="#9966FF" fill-opacity="1"
          d="m 0,4 A 4,4 0 0,1 4,0 H 12 c 2,0 3,1 4,2 l 4,4 c 1,1 2,2 4,2 h 12 c 2,0 3,-1 4,-2 l 4,-4 c 1,-1 2,-2 4,-2 H 103.35185241699219 a 4,4 0 0,1 4,4 v 40  a 4,4 0 0,1 -4,4 H 48   c -2,0 -3,1 -4,2 l -4,4 c -1,1 -2,2 -4,2 h -12 c -2,0 -3,-1 -4,-2 l -4,-4 c -1,-1 -2,-2 -4,-2 H 4 a 4,4 0 0,1 -4,-4 z">
        </path><text class="blocklyText" y="2" text-anchor="middle" dominant-baseline="middle" dy="0"
          x="15.129630088806152" transform="translate(8, 24) ">diga</text>
        <path class="blocklyPath" style="visibility: hidden"
          d="M 16,0 h 16 a 16 16 0 0 1 0 32 h -16 a 16 16 0 0 1 0 -32 z" fill="#774DCB" transform="translate(48,8)"
          data-argument-type="round"></path>
        <g data-id="m*_l_-)=9cMbDW6zDtEs" data-argument-type="text" data-shapes="argument round"
          transform="translate(48,8)">
          <path class="blocklyPath blocklyBlockBackground" stroke="#774DCB" fill="#FFFFFF" fill-opacity="1"
            d="m 0,0 m 16,0 H 35.35185241699219 a 16 16 0 0 1 0 32 H 16 a 16 16 0 0 1 0 -32 z"></path>
          <g class="blocklyEditableText" transform="translate(8, 0) " style="cursor: text;"><text class="blocklyText"
              x="17.675926208496094" y="18" dominant-baseline="middle" dy="0" text-anchor="middle" style="fill: black">Olá!</text></g>
        </g>
      </g>
      <g data-id="uk_oW0!vqPeCv?m0xUo^" class="blocklyDraggable" data-shapes="reporter boolean"
        data-category="operators" transform="translate(113.86250305175781,4)">
        <path class="blocklyPath blocklyBlockBackground" stroke="#389438" fill="#59C059" fill-opacity="1"
          d="m 0,0 m 20,0 H 125.35000038146973 l 20 20 l -20 20 H 20 l -20 -20 l 20 -20 z"></path>
        <g data-id="D^Q@YPLBx5{|d@H.bk#]" data-argument-type="text" data-shapes="argument round"
          transform="translate(20,4)">
          <path class="blocklyPath blocklyBlockBackground" stroke="#389438" fill="#FFFFFF" fill-opacity="1"
            d="m 0,0 m 16,0 H 24 a 16 16 0 0 1 0 32 H 16 a 16 16 0 0 1 0 -32 z"></path>
          <g class="blocklyEditableText" transform="translate(8, 0) " style="cursor: text;"><text class="blocklyText"
              x="12" y="18" dominant-baseline="middle" dy="0" text-anchor="middle" style="fill: black">1</text></g>
        </g>
        <g data-id="y)F#rO_9Fx|iA|MjR{BF" data-argument-type="text" data-shapes="argument round"
          transform="translate(85.35000038146973,4)">
          <path class="blocklyPath blocklyBlockBackground" stroke="#389438" fill="#FFFFFF" fill-opacity="1"
            d="m 0,0 m 16,0 H 24 a 16 16 0 0 1 0 32 H 16 a 16 16 0 0 1 0 -32 z"></path>
          <g class="blocklyEditableText" transform="translate(8, 0) " style="cursor: text;"><text class="blocklyText"
              x="12" y="18" dominant-baseline="middle" dy="0" text-anchor="middle" style="fill: black">1</text></g>
        </g>
        <path class="blocklyPath" style="visibility: hidden" d="" fill="#389438"></path><text class="blocklyText" y="2"
          text-anchor="middle" dominant-baseline="middle" dy="0" x="4.675000190734863"
          transform="translate(68, 20) ">=</text>
        <path class="blocklyPath" style="visibility: hidden" d="" fill="#389438"></path>
      </g>
    </g>
  </g>

</svg>